<svg width="88" height="16" viewBox="0 0 88 16" fill="none" xmlns="http://www.w3.org/2000/svg">
<g filter="url(#filter0_d)">
<path d="M78.2775 1.97284e-06C80.0983 1.68661 82.0058 2.91738 84 3.69231L84 4.30769C82.0058 5.10541 80.0983 6.33618 78.2775 8L76.7601 8C77.6272 6.5641 78.4653 5.47009 79.2746 4.71795L54 4.71795L54 3.28205L79.2746 3.28205C78.4653 2.52992 77.6272 1.4359 76.7601 1.86378e-06L78.2775 1.97284e-06Z" fill="white"/>
<path d="M9.72254 8C7.90173 6.31339 5.99422 5.08262 4 4.30769V3.69231C5.99422 2.89459 7.90173 1.66382 9.72254 0H11.2399C10.3728 1.4359 9.53468 2.52991 8.72543 3.28205H34V4.71795H8.72543C9.53468 5.47009 10.3728 6.5641 11.2399 8H9.72254Z" fill="white"/>
</g>
<defs>
<filter id="filter0_d" x="0" y="0" width="88" height="16" filterUnits="userSpaceOnUse" color-interpolation-filters="sRGB">
<feFlood flood-opacity="0" result="BackgroundImageFix"/>
<feColorMatrix in="SourceAlpha" type="matrix" values="0 0 0 0 0 0 0 0 0 0 0 0 0 0 0 0 0 0 127 0" result="hardAlpha"/>
<feOffset dy="4"/>
<feGaussianBlur stdDeviation="2"/>
<feComposite in2="hardAlpha" operator="out"/>
<feColorMatrix type="matrix" values="0 0 0 0 0 0 0 0 0 0 0 0 0 0 0 0 0 0 0.25 0"/>
<feBlend mode="normal" in2="BackgroundImageFix" result="effect1_dropShadow"/>
<feBlend mode="normal" in="SourceGraphic" in2="effect1_dropShadow" result="shape"/>
</filter>
</defs>
</svg>
